# xmcd CD database file
#
# Track frame offsets:
#	150
#	17105
#	38700
#
# Disc length: 806 seconds
#
# Revision: 0
# Processed by: cddbd v1.5PL3 Copyright (c) Steve Scherf et al.
# Submitted via: CDex 1.51
#
DISCID=1a032403
DTITLE=カオルコ - SWEET SWEET JUNKY
DYEAR=1997
DGENRE=Other
TTITLE0=SWEET SWEET JUNKY
TTITLE1=秘密があるね
TTITLE2=ヘヴンと描いたくちびる
EXTD=YEAR: 1997
EXTT0=
EXTT1=
EXTT2=
PLAYORDER=
